# Aspose.3D Wavefront OBJ Exporter
# Copyright 2004-2023 Aspose Pty Ltd.
# File created: 06/26/2023 09:25:45

mtllib material.lib

#
# object explosives_LOD2
#

v 5.609130859375 1.28326416015625 10.0341796875
v 5.218505859375 0.07448196411132808 -10.174560546875
v 4.779052734375 0.12950897216796902 10.076904296875
v 5.7830810546875 0.41618347167968808 -9.619140625
v 5.633544921875 1.23138427734375 -11.273193359375
v 5.5389404296875 7.75146484375 -11.224365234375
v 5.8319091796875 7.855224609375 10.24169921875
v 4.595947265625 9.21630859375 -10.235595703125
v 5.572509765625 3.326416015625 11.578369140625
v 5.572509765625 8.10546875 11.602783203125
v 5.5816650390625 8.941650390625 10.369873046875
v 4.534912109375 9.222412109375 11.48681640625
v 4.2266845703125 9.41162109375 10.09521484375
v -5.511474609375 9.27734375 10.1806640625
v 4.0771484375 8.49609375 -11.62109375
v 4.7760009765625 1.1222839355468801 -11.63330078125
v -2.51007080078125 0.21114349365234404 -11.492919921875
v -4.3548583984375 0.09579658508300786 -9.6435546875
v -4.937744140625 1.1466979980468801 -10.546875
v -2.60162353515625 0.86364746093750016 -11.60888671875
v -5.0628662109375 8.416748046875 -11.566162109375
v -3.875732421875 8.905029296875 -11.65771484375
v -4.205322265625 9.31396484375 -11.187744140625
v -5.1849365234375 9.28955078125 -10.2783203125
v -5.6243896484375 8.4716796875 -10.601806640625
v -5.6884765625 1.0986328125 -9.38720703125
v -5.8349609375 7.745361328125 10.345458984375
v -5.7891845703125 0.70495605468750008 10.3271484375
v -5.242919921875 0.08430480957031251 10.382080078125
v -5.181884765625 0.72059631347656208 11.1572265625
v -5.3955078125 7.763671875 11.566162109375
v -4.19921875 9.185791015625 11.517333984375
v 4.6478271484375 7.928466796875 11.71875
v 3.86962890625 1.36642456054688008 11.58447265625
v -4.632568359375 0.1220703125 11.102294921875
v 3.9886474609375 0.13179779052734406 10.9375
# 36 vertices

vn 0.89013671875 -0.35668945312500004 0.283203125
vn 0.76025390625000016 -0.53417968750000008 0.36914062500000008
vn 0.458740234375 -0.79931640625 -0.3876953125
vn 0.458740234375 -0.79931640625 -0.3876953125
vn 0.8671875 -0.49340820312500008 -0.06890869140625003
vn 0.89013671875 -0.35668945312500004 0.283203125
vn 0.75146484375 -0.27880859375000012 -0.59814453125000008
vn 0.8671875 -0.49340820312500008 -0.06890869140625003
vn 0.458740234375 -0.79931640625 -0.3876953125
vn 0.78125 0.28784179687500004 -0.55371093750000008
vn 0.8671875 -0.49340820312500008 -0.06890869140625003
vn 0.75146484375 -0.27880859375000012 -0.59814453125000008
vn 0.89013671875 -0.35668945312500004 0.283203125
vn 0.8671875 -0.49340820312500008 -0.06890869140625003
vn 0.78125 0.28784179687500004 -0.55371093750000008
vn 0.78125 0.28784179687500004 -0.55371093750000008
vn 0.9931640625 0.09918212890625006 0.06240844726562501
vn 0.89013671875 -0.35668945312500004 0.283203125
vn 0.9931640625 0.09918212890625006 0.06240844726562501
vn 0.78125 0.28784179687500004 -0.55371093750000008
vn 0.44311523437500008 0.87109375000000016 -0.21179199218750004
vn 0.68554687500000008 -0.13049316406250002 0.71582031250000024
vn 0.89013671875 -0.35668945312500004 0.283203125
vn 0.9931640625 0.09918212890625006 0.06240844726562501
vn 0.9931640625 0.09918212890625006 0.06240844726562501
vn 0.67187500000000024 0.22607421875000004 0.705078125
vn 0.68554687500000008 -0.13049316406250002 0.71582031250000024
vn 0.74707031250000016 0.65429687500000008 0.11560058593750002
vn 0.67187500000000024 0.22607421875000004 0.705078125
vn 0.9931640625 0.09918212890625006 0.06240844726562501
vn 0.44311523437500008 0.87109375000000016 -0.21179199218750004
vn 0.74707031250000016 0.65429687500000008 0.11560058593750002
vn 0.9931640625 0.09918212890625006 0.06240844726562501
vn 0.21923828125000004 0.73291015625000016 0.64404296875
vn 0.67187500000000024 0.22607421875000004 0.705078125
vn 0.74707031250000016 0.65429687500000008 0.11560058593750002
vn 0.14379882812500002 0.98828125 0.04699707031250001
vn 0.74707031250000016 0.65429687500000008 0.11560058593750002
vn 0.44311523437500008 0.87109375000000016 -0.21179199218750004
vn 0.21923828125000004 0.73291015625000016 0.64404296875
vn 0.74707031250000016 0.65429687500000008 0.11560058593750002
vn 0.14379882812500002 0.98828125 0.04699707031250001
vn -0.63476562500000008 0.74804687500000016 0.19470214843750004
vn 0.14379882812500002 0.98828125 0.04699707031250001
vn 0.44311523437500008 0.87109375000000016 -0.21179199218750004
vn 0.21923828125000004 0.73291015625000016 0.64404296875
vn 0.14379882812500002 0.98828125 0.04699707031250001
vn -0.63476562500000008 0.74804687500000016 0.19470214843750004
vn 0.20373535156250004 0.49853515625 -0.84277343750000016
vn 0.44311523437500008 0.87109375000000016 -0.21179199218750004
vn 0.78125 0.28784179687500004 -0.55371093750000008
vn 0.20886230468750004 -0.40380859375000008 -0.89062500000000016
vn 0.20373535156250004 0.49853515625 -0.84277343750000016
vn 0.78125 0.28784179687500004 -0.55371093750000008
vn 0.78125 0.28784179687500004 -0.55371093750000008
vn 0.75146484375 -0.27880859375000012 -0.59814453125000008
vn 0.20886230468750004 -0.40380859375000008 -0.89062500000000016
vn 0.20886230468750004 -0.40380859375000008 -0.89062500000000016
vn 0.75146484375 -0.27880859375000012 -0.59814453125000008
vn 0.458740234375 -0.79931640625 -0.3876953125
vn 0.20886230468750004 -0.40380859375000008 -0.89062500000000016
vn 0.458740234375 -0.79931640625 -0.3876953125
vn -0.16259765625000002 -0.71191406250000008 -0.68310546875000008
vn 0.458740234375 -0.79931640625 -0.3876953125
vn -0.49047851562500008 -0.82470703125000016 -0.28125
vn -0.16259765625000002 -0.71191406250000008 -0.68310546875000008
vn -0.49047851562500008 -0.82470703125000016 -0.28125
vn -0.63574218750000008 -0.37963867187500008 -0.67187500000000024
vn -0.16259765625000002 -0.71191406250000008 -0.68310546875000008
vn -0.63574218750000008 -0.37963867187500008 -0.67187500000000024
vn -0.20581054687500004 -0.133056640625 -0.96972656250000016
vn -0.16259765625000002 -0.71191406250000008 -0.68310546875000008
vn -0.20581054687500004 -0.133056640625 -0.96972656250000016
vn 0.20886230468750004 -0.40380859375000008 -0.89062500000000016
vn -0.16259765625000002 -0.71191406250000008 -0.68310546875000008
vn -0.63574218750000008 -0.37963867187500008 -0.67187500000000024
vn -0.55029296874999992 0.24096679687500004 -0.79931640625
vn -0.20581054687500004 -0.133056640625 -0.96972656250000016
vn 0.20886230468750004 -0.40380859375000008 -0.89062500000000016
vn -0.20581054687500004 -0.133056640625 -0.96972656250000016
vn -0.07238769531249999 0.42480468750000008 -0.90234375
vn -0.07238769531249999 0.42480468750000008 -0.90234375
vn 0.20373535156250004 0.49853515625 -0.84277343750000016
vn 0.20886230468750004 -0.40380859375000008 -0.89062500000000016
vn -0.55029296874999992 0.24096679687500004 -0.79931640625
vn -0.07238769531249999 0.42480468750000008 -0.90234375
vn -0.20581054687500004 -0.133056640625 -0.96972656250000016
vn -0.17529296875000002 0.89404296875 -0.41210937500000008
vn 0.20373535156250004 0.49853515625 -0.84277343750000016
vn -0.07238769531249999 0.42480468750000008 -0.90234375
vn -0.17529296875000002 0.89404296875 -0.41210937500000008
vn 0.44311523437500008 0.87109375000000016 -0.21179199218750004
vn 0.20373535156250004 0.49853515625 -0.84277343750000016
vn -0.07238769531249999 0.42480468750000008 -0.90234375
vn -0.55029296874999992 0.24096679687500004 -0.79931640625
vn -0.17529296875000002 0.89404296875 -0.41210937500000008
vn -0.17529296875000002 0.89404296875 -0.41210937500000008
vn -0.5185546875 0.84033203125 -0.15979003906250006
vn 0.44311523437500008 0.87109375000000016 -0.21179199218750004
vn -0.5185546875 0.84033203125 -0.15979003906250006
vn -0.17529296875000002 0.89404296875 -0.41210937500000008
vn -0.55029296874999992 0.24096679687500004 -0.79931640625
vn -0.5185546875 0.84033203125 -0.15979003906250006
vn -0.63476562500000008 0.74804687500000016 0.19470214843750004
vn 0.44311523437500008 0.87109375000000016 -0.21179199218750004
vn -0.55029296874999992 0.24096679687500004 -0.79931640625
vn -0.92333984375 0.250732421875 -0.29052734375000004
vn -0.5185546875 0.84033203125 -0.15979003906250006
vn -0.5185546875 0.84033203125 -0.15979003906250006
vn -0.92333984375 0.250732421875 -0.29052734375000004
vn -0.63476562500000008 0.74804687500000016 0.19470214843750004
vn -0.92333984375 0.250732421875 -0.29052734375000004
vn -0.55029296874999992 0.24096679687500004 -0.79931640625
vn -0.63574218750000008 -0.37963867187500008 -0.67187500000000024
vn -0.63574218750000008 -0.37963867187500008 -0.67187500000000024
vn -0.87744140625000016 -0.417236328125 -0.23620605468750004
vn -0.92333984375 0.250732421875 -0.29052734375000004
vn -0.49047851562500008 -0.82470703125000016 -0.28125
vn -0.87744140625000016 -0.417236328125 -0.23620605468750004
vn -0.63574218750000008 -0.37963867187500008 -0.67187500000000024
vn -0.97900390625 0.09661865234375002 0.17871093750000006
vn -0.92333984375 0.250732421875 -0.29052734375000004
vn -0.87744140625000016 -0.417236328125 -0.23620605468750004
vn -0.92333984375 0.250732421875 -0.29052734375000004
vn -0.97900390625 0.09661865234375002 0.17871093750000006
vn -0.63476562500000008 0.74804687500000016 0.19470214843750004
vn -0.90576171875 -0.32812500000000004 0.26806640625000004
vn -0.87744140625000016 -0.417236328125 -0.23620605468750004
vn -0.49047851562500008 -0.82470703125000016 -0.28125
vn -0.87744140625000016 -0.417236328125 -0.23620605468750004
vn -0.90576171875 -0.32812500000000004 0.26806640625000004
vn -0.97900390625 0.09661865234375002 0.17871093750000006
vn -0.49047851562500008 -0.82470703125000016 -0.28125
vn -0.71630859375 -0.63378906250000024 0.292236328125
vn -0.90576171875 -0.32812500000000004 0.26806640625000004
vn -0.90576171875 -0.32812500000000004 0.26806640625000004
vn -0.71630859375 -0.63378906250000024 0.292236328125
vn -0.50292968750000008 -0.25341796875000004 0.82617187500000016
vn -0.97900390625 0.09661865234375002 0.17871093750000006
vn -0.90576171875 -0.32812500000000004 0.26806640625000004
vn -0.50292968750000008 -0.25341796875000004 0.82617187500000016
vn -0.50292968750000008 -0.25341796875000004 0.82617187500000016
vn -0.595703125 0.12792968750000002 0.79296875
vn -0.97900390625 0.09661865234375002 0.17871093750000006
vn -0.97900390625 0.09661865234375002 0.17871093750000006
vn -0.595703125 0.12792968750000002 0.79296875
vn -0.63476562500000008 0.74804687500000016 0.19470214843750004
vn -0.63476562500000008 0.74804687500000016 0.19470214843750004
vn -0.16430664062500002 0.68798828125000008 0.70654296874999992
vn 0.21923828125000004 0.73291015625000016 0.64404296875
vn -0.595703125 0.12792968750000002 0.79296875
vn -0.16430664062500002 0.68798828125000008 0.70654296874999992
vn -0.63476562500000008 0.74804687500000016 0.19470214843750004
vn 0.048583984375 0.07409667968750003 0.99609375
vn 0.21923828125000004 0.73291015625000016 0.64404296875
vn -0.16430664062500002 0.68798828125000008 0.70654296874999992
vn -0.16430664062500002 0.68798828125000008 0.70654296874999992
vn -0.595703125 0.12792968750000002 0.79296875
vn 0.048583984375 0.07409667968750003 0.99609375
vn 0.67187500000000024 0.22607421875000004 0.705078125
vn 0.21923828125000004 0.73291015625000016 0.64404296875
vn 0.048583984375 0.07409667968750003 0.99609375
vn 0.68554687500000008 -0.13049316406250002 0.71582031250000024
vn 0.67187500000000024 0.22607421875000004 0.705078125
vn 0.048583984375 0.07409667968750003 0.99609375
vn 0.23303222656250004 -0.2939453125 0.92675781250000016
vn 0.048583984375 0.07409667968750003 0.99609375
vn -0.595703125 0.12792968750000002 0.79296875
vn 0.048583984375 0.07409667968750003 0.99609375
vn 0.23303222656250004 -0.2939453125 0.92675781250000016
vn 0.68554687500000008 -0.13049316406250002 0.71582031250000024
vn -0.595703125 0.12792968750000002 0.79296875
vn -0.50292968750000008 -0.25341796875000004 0.82617187500000016
vn 0.23303222656250004 -0.2939453125 0.92675781250000016
vn 0.89013671875 -0.35668945312500004 0.283203125
vn 0.68554687500000008 -0.13049316406250002 0.71582031250000024
vn 0.23303222656250004 -0.2939453125 0.92675781250000016
vn 0.23303222656250004 -0.2939453125 0.92675781250000016
vn -0.50292968750000008 -0.25341796875000004 0.82617187500000016
vn -0.24645996093750004 -0.33593750000000004 0.90917968750000016
vn -0.50292968750000008 -0.25341796875000004 0.82617187500000016
vn -0.71630859375 -0.63378906250000024 0.292236328125
vn -0.24645996093750004 -0.33593750000000004 0.90917968750000016
vn -0.24645996093750004 -0.33593750000000004 0.90917968750000016
vn 0.39355468750000008 -0.42895507812500008 0.81298828125
vn 0.23303222656250004 -0.2939453125 0.92675781250000016
vn 0.89013671875 -0.35668945312500004 0.283203125
vn 0.23303222656250004 -0.2939453125 0.92675781250000016
vn 0.39355468750000008 -0.42895507812500008 0.81298828125
vn 0.39355468750000008 -0.42895507812500008 0.81298828125
vn 0.76025390625000016 -0.53417968750000008 0.36914062500000008
vn 0.89013671875 -0.35668945312500004 0.283203125
vn 0.00461196899414062 -1 0.00843048095703125
vn 0.00208663940429688 -0.99853515625 0.05081176757812503
vn 0.00369834899902344 -1 0.01708984375
vn 0.00369834899902344 -1 0.01708984375
vn 0.00333976745605469 -1 0.00262451171875
vn 0.00461196899414062 -1 0.00843048095703125
vn 0.00333976745605469 -1 0.00262451171875
vn 0.00369834899902344 -1 0.01708984375
vn -0.00017893314361572306 -1 0.00178909301757812
vn -0.00017893314361572306 -1 0.00178909301757812
vn -0.00206756591796875 -1 0.00262451171875
vn 0.00333976745605469 -1 0.00262451171875
# 204 vertex normals

vt 0.25488281250000004 0.06500244140625004 0
vt 0.70654296874999992 0.05545043945312501 0
vt 0.25439453125000004 0.03680419921875002 0
vt 0.69287109375000024 0.06536865234375001 0
vt 0.72607421875000016 0.08776855468750003 0
vt 0.71484375000000008 0.22473144531250004 0
vt 0.25024414062499996 0.20556640625000004 0
vt 0.68652343750000024 0.26123046875 0
vt 0.22167968750000004 0.10943603515625002 0
vt 0.22033691406250004 0.21350097656250004 0
vt 0.24743652343750004 0.22949218750000008 0
vt 0.22131347656250004 0.25292968750000004 0
vt 0.25122070312500004 0.26098632812500004 0
vt 0.24194335937500004 0.47265625 0
vt 0.71728515625000008 0.27099609375000004 0
vt 0.87451171875 0.254150390625 0
vt 0.87402343750000016 0.2353515625 0
vt 0.912109375 0.24267578125 0
vt 0.892578125 0.40722656250000008 0
vt 0.91748046874999984 0.44946289062500008 0
vt 0.88378906250000016 0.46337890625000008 0
vt 0.88085937500000016 0.41088867187500016 0
vt 0.71972656250000008 0.47558593750000008 0
vt 0.71240234374999992 0.44384765625000008 0
vt 0.70605468750000008 0.45166015625 0
vt 0.68457031250000024 0.468994140625 0
vt 0.69238281250000024 0.48803710937500008 0
vt 0.70654296874999992 0.642578125 0
vt 0.67675781250000032 0.64599609375000008 0
vt 0.68652343750000024 0.67578125000000024 0
vt 0.23937988281250004 0.5107421875 0
vt 0.24011230468750004 0.66210937500000008 0
vt 0.2381591796875 0.67675781250000032 0
vt 0.22058105468750004 0.66308593750000024 0
vt 0.21386718750000004 0.51123046874999992 0
vt 0.21826171875000004 0.44018554687500008 0
vt 0.19128417968750004 0.46752929687500008 0
vt 0.19287109375000004 0.25170898437500004 0
vt 0.19641113281250008 0.23156738281250004 0
vt 0.09460449218750002 0.23168945312500004 0
vt 0.05307006835937502 0.26855468750000004 0
vt 0.03845214843750001 0.46240234375000008 0
vt 0.04003906250000001 0.22045898437500004 0
vt 0.02490234375 0.45141601562500008 0
vt 0.019287109375 0.4736328125 0
vt 0.02395629882812501 0.26489257812500004 0
vt 0.018524169921875 0.23779296875000004 0
vt 0.7744140625 0.52343749999999992 0
vt 0.97021484374999984 0.54052734374999992 0
vt 0.95751953125 0.52490234374999992 0
vt 0.75683593750000016 0.541015625 0
vt 0.94580078125 0.96972656250000016 0
vt 0.74121093750000016 0.97656249999999984 0
# 53 texture coords

g explosives_LOD2
usemtl explosives_albedo
s 1
f 1/1/1 3/3/2 2/2/3
f 2/2/4 4/4/5 1/1/6
f 5/5/7 4/4/8 2/2/9
f 6/6/10 4/4/11 5/5/12
f 1/1/13 4/4/14 6/6/15
f 6/6/16 7/7/17 1/1/18
f 7/7/19 6/6/20 8/8/21
f 9/9/22 1/1/23 7/7/24
f 7/7/25 10/10/26 9/9/27
f 11/11/28 10/10/29 7/7/30
f 8/8/31 11/11/32 7/7/33
f 12/12/34 10/10/35 11/11/36
f 13/13/37 11/11/38 8/8/39
f 12/12/40 11/11/41 13/13/42
f 14/14/43 13/13/44 8/8/45
f 12/12/46 13/13/47 14/14/48
f 15/15/49 8/8/50 6/6/51
f 16/16/52 15/15/53 6/6/54
f 6/6/55 5/17/56 16/16/57
f 16/16/58 5/17/59 2/18/60
f 16/16/61 2/18/62 17/19/63
f 2/18/64 18/20/65 17/19/66
f 18/20/67 19/21/68 17/19/69
f 19/21/70 20/22/71 17/19/72
f 20/22/73 16/16/74 17/19/75
f 19/21/76 21/23/77 20/22/78
f 16/16/79 20/22/80 22/24/81
f 22/24/82 15/15/83 16/16/84
f 21/23/85 22/24/86 20/22/87
f 23/25/88 15/15/89 22/24/90
f 23/25/91 8/8/92 15/15/93
f 22/24/94 21/23/95 23/25/96
f 23/25/97 24/26/98 8/8/99
f 24/26/100 23/25/101 21/23/102
f 24/26/103 14/14/104 8/8/105
f 21/23/106 25/27/107 24/26/108
f 24/26/109 25/27/110 14/14/111
f 25/27/112 21/23/113 19/28/114
f 19/28/115 26/29/116 25/27/117
f 18/30/118 26/29/119 19/28/120
f 27/31/121 25/27/122 26/29/123
f 25/27/124 27/31/125 14/14/126
f 28/32/127 26/29/128 18/30/129
f 26/29/130 28/32/131 27/31/132
f 18/30/133 29/33/134 28/32/135
f 28/32/136 29/33/137 30/34/138
f 27/31/139 28/32/140 30/34/141
f 30/34/142 31/35/143 27/31/144
f 27/31/145 31/35/146 14/14/147
f 14/14/148 32/36/149 12/12/150
f 31/37/151 32/36/152 14/14/153
f 33/38/154 12/12/155 32/36/156
f 32/36/157 31/37/158 33/38/159
f 10/39/160 12/12/161 33/38/162
f 9/40/163 10/39/164 33/38/165
f 34/41/166 33/38/167 31/37/168
f 33/38/169 34/41/170 9/40/171
f 31/37/172 30/42/173 34/41/174
f 1/43/175 9/40/176 34/41/177
f 34/41/178 30/42/179 35/44/180
f 30/42/181 29/45/182 35/44/183
f 35/44/184 36/46/185 34/41/186
f 1/43/187 34/41/188 36/46/189
f 36/46/190 3/47/191 1/43/192
f 36/48/193 35/50/194 29/49/195
f 29/49/196 3/51/197 36/48/198
f 3/51/199 29/49/200 18/52/201
f 18/52/202 2/53/203 3/51/204
#68 polygons

